<svg width="82" height="40" viewBox="0 0 82 40" fill="none" xmlns="http://www.w3.org/2000/svg">
<rect x="0.5" y="0.5" width="81" height="39" stroke="black"/>
<path d="M12.232 29V27.032L17.632 21.368C18.592 20.36 19.296 19.448 19.744 18.632C20.192 17.816 20.416 17.024 20.416 16.256C20.416 15.232 20.12 14.424 19.528 13.832C18.952 13.224 18.16 12.92 17.152 12.92C16.096 12.92 15.256 13.224 14.632 13.832C14.024 14.44 13.72 15.272 13.72 16.328H11.8C11.832 15.288 12.072 14.384 12.52 13.616C12.968 12.848 13.584 12.264 14.368 11.864C15.168 11.448 16.096 11.24 17.152 11.24C18.208 11.24 19.12 11.44 19.888 11.84C20.672 12.24 21.272 12.816 21.688 13.568C22.104 14.304 22.312 15.192 22.312 16.232C22.312 17.24 22.04 18.248 21.496 19.256C20.952 20.264 20.08 21.392 18.88 22.64L14.32 27.272H22.648V29H12.232ZM26.9586 29L31.6386 22.208L27.2466 15.8H29.4786L32.2626 20.072C32.3586 20.232 32.4546 20.416 32.5506 20.624C32.6626 20.816 32.7506 20.968 32.8146 21.08C32.8786 20.968 32.9586 20.816 33.0546 20.624C33.1666 20.416 33.2706 20.232 33.3666 20.072L36.1506 15.8H38.3586L33.9666 22.232L38.6226 29H36.3906L33.4146 24.488C33.3026 24.328 33.1906 24.136 33.0786 23.912C32.9826 23.688 32.8946 23.512 32.8146 23.384C32.7506 23.512 32.6546 23.688 32.5266 23.912C32.3986 24.136 32.2786 24.328 32.1666 24.488L29.1666 29H26.9586ZM43.4132 29V27.272H48.2132V13.088L43.4612 16.616V14.504L47.5412 11.48H50.1092V27.272H54.0692V29H43.4132ZM59.0039 29V27.272H63.8039V13.088L59.0519 16.616V14.504L63.1319 11.48H65.6999V27.272H69.6599V29H59.0039Z" fill="black"/>
</svg>
