<svg width="279" height="84" viewBox="0 0 279 84" fill="none" xmlns="http://www.w3.org/2000/svg">
<path d="M0.72 30L8.76 0.799999H11.24L19.28 30H17.2L14.96 21.6H4.96L2.72 30H0.72ZM5.44 19.8H14.48L11.32 8C10.9467 6.56 10.64 5.36 10.4 4.4C10.1867 3.41333 10.0533 2.77333 10 2.48C9.94667 2.77333 9.8 3.41333 9.56 4.4C9.32 5.36 9.01333 6.56 8.64 8L5.44 19.8ZM28.7844 30V0.799999H30.7844V28.16H44.9844V30H28.7844ZM62.2088 30.4C60.5821 30.4 59.1688 30.0667 57.9688 29.4C56.7688 28.7333 55.8354 27.8 55.1688 26.6C54.5021 25.4 54.1688 24 54.1688 22.4V8.4C54.1688 6.77333 54.5021 5.36 55.1688 4.16C55.8354 2.96 56.7688 2.04 57.9688 1.4C59.1688 0.733333 60.5821 0.4 62.2088 0.4C63.8621 0.4 65.3021 0.746666 66.5288 1.44C67.7554 2.13333 68.7021 3.10667 69.3688 4.36C70.0354 5.61333 70.3688 7.09333 70.3688 8.8H68.3688C68.3688 6.74666 67.8088 5.13333 66.6888 3.96C65.5954 2.78666 64.1021 2.2 62.2088 2.2C60.3421 2.2 58.8621 2.76 57.7688 3.88C56.7021 4.97333 56.1688 6.48 56.1688 8.4V22.4C56.1688 24.32 56.7021 25.84 57.7688 26.96C58.8621 28.0533 60.3421 28.6 62.2088 28.6C64.1288 28.6 65.6354 28.0133 66.7288 26.84C67.8221 25.64 68.3688 24.0267 68.3688 22V17.6H61.4488V15.76H70.3688V22C70.3688 23.7067 70.0354 25.1867 69.3688 26.44C68.7021 27.6933 67.7554 28.6667 66.5288 29.36C65.3021 30.0533 63.8621 30.4 62.2088 30.4ZM87.9531 30.4C86.3798 30.4 85.0065 30.08 83.8331 29.44C82.6598 28.7733 81.7531 27.84 81.1131 26.64C80.4731 25.44 80.1531 24.0267 80.1531 22.4V8.4C80.1531 6.77333 80.4731 5.37333 81.1131 4.2C81.7531 3 82.6598 2.06666 83.8331 1.4C85.0065 0.733333 86.3798 0.4 87.9531 0.4C89.5265 0.4 90.8998 0.733333 92.0731 1.4C93.2465 2.06666 94.1531 3 94.7931 4.2C95.4331 5.37333 95.7531 6.77333 95.7531 8.4V22.4C95.7531 24.0267 95.4331 25.44 94.7931 26.64C94.1531 27.84 93.2465 28.7733 92.0731 29.44C90.9265 30.08 89.5531 30.4 87.9531 30.4ZM87.9531 28.64C89.7931 28.64 91.2198 28.0933 92.2331 27C93.2465 25.9067 93.7531 24.3733 93.7531 22.4V8.4C93.7531 6.42667 93.2331 4.89333 92.1931 3.8C91.1798 2.70667 89.7665 2.16 87.9531 2.16C86.1398 2.16 84.7131 2.70667 83.6731 3.8C82.6598 4.89333 82.1531 6.42667 82.1531 8.4V22.4C82.1531 24.3733 82.6598 25.9067 83.6731 27C84.6865 28.0933 86.1131 28.64 87.9531 28.64ZM106.338 30V0.799999H114.538C116.271 0.799999 117.764 1.13333 119.018 1.8C120.271 2.44 121.231 3.37333 121.898 4.6C122.591 5.8 122.938 7.22667 122.938 8.88C122.938 10.9867 122.338 12.7467 121.138 14.16C119.964 15.5733 118.351 16.4267 116.298 16.72L123.138 30H120.738L114.138 16.8H108.338V30H106.338ZM108.338 15H114.538C116.484 15 118.031 14.44 119.178 13.32C120.351 12.1733 120.938 10.6667 120.938 8.8C120.938 6.90667 120.351 5.41333 119.178 4.32C118.031 3.2 116.484 2.64 114.538 2.64H108.338V15ZM132.722 30V28.16H138.962V2.6H132.722V0.76H147.122V2.6H140.962V28.16H147.122V30H132.722ZM164.946 30V2.64H156.306V0.799999H175.506V2.64H166.946V30H164.946ZM184.291 30V0.799999H186.291V13.92H197.491V0.799999H199.491V30H197.491V15.76H186.291V30H184.291ZM209.555 30V0.799999H212.555L216.635 12C216.848 12.5867 217.075 13.2267 217.315 13.92C217.582 14.6133 217.782 15.1867 217.915 15.64C218.048 15.1867 218.235 14.6133 218.475 13.92C218.742 13.2267 218.982 12.5867 219.195 12L223.235 0.799999H226.195V30H224.235V12.4C224.235 11.3867 224.235 10.3733 224.235 9.36C224.262 8.32 224.288 7.33333 224.315 6.4C224.342 5.44 224.355 4.57333 224.355 3.8C224.382 3 224.408 2.33333 224.435 1.8L218.955 17H216.835L211.275 1.8C211.302 2.33333 211.328 3 211.355 3.8C211.382 4.57333 211.408 5.44 211.435 6.4C211.462 7.33333 211.475 8.32 211.475 9.36C211.502 10.3733 211.515 11.3867 211.515 12.4V30H209.555ZM236.659 30V28.16H242.899V2.6H236.659V0.76H251.059V2.6H244.899V28.16H251.059V30H236.659ZM270.084 30.4C268.457 30.4 267.044 30.0667 265.844 29.4C264.644 28.7333 263.71 27.8 263.044 26.6C262.377 25.4 262.044 24 262.044 22.4V8.4C262.044 6.77333 262.377 5.36 263.044 4.16C263.71 2.96 264.644 2.04 265.844 1.4C267.044 0.733333 268.457 0.4 270.084 0.4C271.737 0.4 273.177 0.746666 274.404 1.44C275.63 2.13333 276.577 3.10667 277.244 4.36C277.91 5.61333 278.244 7.09333 278.244 8.8H276.244C276.244 6.74666 275.684 5.13333 274.564 3.96C273.47 2.78666 271.977 2.2 270.084 2.2C268.217 2.2 266.737 2.76 265.644 3.88C264.577 4.97333 264.044 6.48 264.044 8.4V22.4C264.044 24.32 264.577 25.84 265.644 26.96C266.737 28.0533 268.217 28.6 270.084 28.6C272.004 28.6 273.51 28.0133 274.604 26.84C275.697 25.64 276.244 24.0267 276.244 22H278.244C278.244 23.7067 277.91 25.1867 277.244 26.44C276.577 27.6933 275.63 28.6667 274.404 29.36C273.177 30.0533 271.737 30.4 270.084 30.4ZM2.4 83V53.8H11C12.7067 53.8 14.1867 54.1333 15.44 54.8C16.6933 55.4667 17.6667 56.4133 18.36 57.64C19.0533 58.84 19.4 60.2667 19.4 61.92C19.4 63.5467 19.0533 64.9733 18.36 66.2C17.6667 67.4267 16.6933 68.3733 15.44 69.04C14.1867 69.7067 12.7067 70.04 11 70.04H4.4V83H2.4ZM4.4 68.2H11C12.9467 68.2 14.4933 67.64 15.64 66.52C16.8133 65.3733 17.4 63.84 17.4 61.92C17.4 59.9733 16.8267 58.44 15.68 57.32C14.5333 56.2 12.9733 55.64 11 55.64H4.4V68.2ZM28.3844 83V53.8H36.5844C38.3177 53.8 39.811 54.1333 41.0644 54.8C42.3177 55.44 43.2777 56.3733 43.9444 57.6C44.6377 58.8 44.9844 60.2267 44.9844 61.88C44.9844 63.9867 44.3844 65.7467 43.1844 67.16C42.011 68.5733 40.3977 69.4267 38.3444 69.72L45.1844 83H42.7844L36.1844 69.8H30.3844V83H28.3844ZM30.3844 68H36.5844C38.531 68 40.0777 67.44 41.2244 66.32C42.3977 65.1733 42.9844 63.6667 42.9844 61.8C42.9844 59.9067 42.3977 58.4133 41.2244 57.32C40.0777 56.2 38.531 55.64 36.5844 55.64H30.3844V68ZM61.9688 83.4C60.3954 83.4 59.0221 83.08 57.8488 82.44C56.6754 81.7733 55.7688 80.84 55.1288 79.64C54.4888 78.44 54.1688 77.0267 54.1688 75.4V61.4C54.1688 59.7733 54.4888 58.3733 55.1288 57.2C55.7688 56 56.6754 55.0667 57.8488 54.4C59.0221 53.7333 60.3954 53.4 61.9688 53.4C63.5421 53.4 64.9154 53.7333 66.0888 54.4C67.2621 55.0667 68.1688 56 68.8088 57.2C69.4488 58.3733 69.7688 59.7733 69.7688 61.4V75.4C69.7688 77.0267 69.4488 78.44 68.8088 79.64C68.1688 80.84 67.2621 81.7733 66.0888 82.44C64.9421 83.08 63.5688 83.4 61.9688 83.4ZM61.9688 81.64C63.8088 81.64 65.2354 81.0933 66.2488 80C67.2621 78.9067 67.7688 77.3733 67.7688 75.4V61.4C67.7688 59.4267 67.2488 57.8933 66.2088 56.8C65.1954 55.7067 63.7821 55.16 61.9688 55.16C60.1554 55.16 58.7288 55.7067 57.6888 56.8C56.6754 57.8933 56.1688 59.4267 56.1688 61.4V75.4C56.1688 77.3733 56.6754 78.9067 57.6888 80C58.7021 81.0933 60.1288 81.64 61.9688 81.64ZM80.3531 83V53.8H86.7531C88.5665 53.8 90.1398 54.1733 91.4731 54.92C92.8331 55.64 93.8865 56.6667 94.6331 58C95.3798 59.3067 95.7531 60.84 95.7531 62.6V74.2C95.7531 75.96 95.3798 77.5067 94.6331 78.84C93.8865 80.1467 92.8331 81.1733 91.4731 81.92C90.1398 82.64 88.5665 83 86.7531 83H80.3531ZM82.3531 81.16H86.7531C88.8598 81.16 90.5531 80.5333 91.8331 79.28C93.1131 78 93.7531 76.3067 93.7531 74.2V62.6C93.7531 60.52 93.0998 58.84 91.7931 57.56C90.5131 56.28 88.8331 55.64 86.7531 55.64H82.3531V81.16ZM113.978 83.4C111.631 83.4 109.751 82.68 108.338 81.24C106.951 79.7733 106.258 77.8267 106.258 75.4V53.8H108.258V75.4C108.258 77.3467 108.764 78.8667 109.778 79.96C110.791 81.0533 112.191 81.6 113.978 81.6C115.764 81.6 117.151 81.0533 118.138 79.96C119.124 78.8667 119.618 77.3467 119.618 75.4V53.8H121.618V75.4C121.618 77.8267 120.924 79.7733 119.538 81.24C118.151 82.68 116.298 83.4 113.978 83.4ZM140.162 83.4C138.535 83.4 137.122 83.0667 135.922 82.4C134.722 81.7333 133.789 80.8 133.122 79.6C132.455 78.4 132.122 77 132.122 75.4V61.4C132.122 59.7733 132.455 58.36 133.122 57.16C133.789 55.96 134.722 55.04 135.922 54.4C137.122 53.7333 138.535 53.4 140.162 53.4C141.815 53.4 143.255 53.7467 144.482 54.44C145.709 55.1333 146.655 56.1067 147.322 57.36C147.989 58.6133 148.322 60.0933 148.322 61.8H146.322C146.322 59.7467 145.762 58.1333 144.642 56.96C143.549 55.7867 142.055 55.2 140.162 55.2C138.295 55.2 136.815 55.76 135.722 56.88C134.655 57.9733 134.122 59.48 134.122 61.4V75.4C134.122 77.32 134.655 78.84 135.722 79.96C136.815 81.0533 138.295 81.6 140.162 81.6C142.082 81.6 143.589 81.0133 144.682 79.84C145.775 78.64 146.322 77.0267 146.322 75H148.322C148.322 76.7067 147.989 78.1867 147.322 79.44C146.655 80.6933 145.709 81.6667 144.482 82.36C143.255 83.0533 141.815 83.4 140.162 83.4ZM164.946 83V55.64H156.306V53.8H175.506V55.64H166.946V83H164.946ZM184.691 83V81.16H190.931V55.6H184.691V53.76H199.091V55.6H192.931V81.16H199.091V83H184.691ZM217.875 83.4C216.302 83.4 214.928 83.08 213.755 82.44C212.582 81.7733 211.675 80.84 211.035 79.64C210.395 78.44 210.075 77.0267 210.075 75.4V61.4C210.075 59.7733 210.395 58.3733 211.035 57.2C211.675 56 212.582 55.0667 213.755 54.4C214.928 53.7333 216.302 53.4 217.875 53.4C219.448 53.4 220.822 53.7333 221.995 54.4C223.168 55.0667 224.075 56 224.715 57.2C225.355 58.3733 225.675 59.7733 225.675 61.4V75.4C225.675 77.0267 225.355 78.44 224.715 79.64C224.075 80.84 223.168 81.7733 221.995 82.44C220.848 83.08 219.475 83.4 217.875 83.4ZM217.875 81.64C219.715 81.64 221.142 81.0933 222.155 80C223.168 78.9067 223.675 77.3733 223.675 75.4V61.4C223.675 59.4267 223.155 57.8933 222.115 56.8C221.102 55.7067 219.688 55.16 217.875 55.16C216.062 55.16 214.635 55.7067 213.595 56.8C212.582 57.8933 212.075 59.4267 212.075 61.4V75.4C212.075 77.3733 212.582 78.9067 213.595 80C214.608 81.0933 216.035 81.64 217.875 81.64ZM236.259 83V53.8H238.979L249.699 80.8C249.673 80.2667 249.646 79.68 249.619 79.04C249.593 78.4 249.566 77.8133 249.539 77.28C249.539 76.7467 249.539 76.3867 249.539 76.2V53.8H251.459V83H248.699L238.099 56C238.126 56.24 238.139 56.6 238.139 57.08C238.139 57.5333 238.139 58.0667 238.139 58.68C238.166 59.2667 238.179 59.9067 238.179 60.6V83H236.259ZM270.044 83.4C268.257 83.4 266.697 83.08 265.364 82.44C264.057 81.8 263.044 80.8933 262.324 79.72C261.604 78.5467 261.244 77.1733 261.244 75.6H263.244C263.244 77.4133 263.857 78.8667 265.084 79.96C266.337 81.0533 267.99 81.6 270.044 81.6C272.044 81.6 273.604 81.1067 274.724 80.12C275.87 79.1067 276.444 77.7067 276.444 75.92C276.444 74.3733 276.004 73.0267 275.124 71.88C274.244 70.7333 273.044 69.9333 271.524 69.48L268.164 68.48C266.244 67.8933 264.737 66.92 263.644 65.56C262.577 64.1733 262.044 62.5333 262.044 60.64C262.044 59.1467 262.364 57.8667 263.004 56.8C263.67 55.7067 264.604 54.8667 265.804 54.28C267.03 53.6933 268.457 53.4 270.084 53.4C272.537 53.4 274.47 54.0933 275.884 55.48C277.324 56.84 278.044 58.7067 278.044 61.08H276.044C276.044 59.2933 275.497 57.8667 274.404 56.8C273.31 55.7333 271.857 55.2 270.044 55.2C268.177 55.2 266.71 55.6667 265.644 56.6C264.577 57.5333 264.044 58.8267 264.044 60.48C264.044 61.92 264.457 63.1867 265.284 64.28C266.11 65.3467 267.23 66.1067 268.644 66.56L272.004 67.6C273.977 68.2133 275.537 69.2533 276.684 70.72C277.857 72.1867 278.444 73.88 278.444 75.8C278.444 77.3467 278.097 78.6933 277.404 79.84C276.737 80.96 275.777 81.84 274.524 82.48C273.27 83.0933 271.777 83.4 270.044 83.4Z" fill="black"/>
</svg>
